<?xml version="1.0" encoding="UTF-8"?>
<svg xmlns="http://www.w3.org/2000/svg" id="Layer_1" data-name="Layer 1" viewBox="0 0 24 24">
  <path d="m22,9.051v-1.551c0-4.136-3.364-7.5-7.5-7.5h-5C5.364,0,2,3.364,2,7.5v1.551c-1.14.232-2,1.242-2,2.449v6.5c0,1.474.81,2.75,2,3.444v2.056c0,.276.224.5.5.5s.5-.224.5-.5v-1.642c.322.084.653.142,1,.142h16c.347,0,.678-.058,1-.142v1.642c0,.276.224.5.5.5s.5-.224.5-.5v-2.056c1.19-.694,2-1.97,2-3.444v-6.5c0-1.207-.86-2.217-2-2.449ZM9.5,1h5c3.584,0,6.5,2.916,6.5,6.5v1.551c-1.14.232-2,1.242-2,2.449v2.5H5v-2.5c0-1.207-.86-2.217-2-2.449v-1.551c0-3.584,2.916-6.5,6.5-6.5Zm-5.5,20c-1.654,0-3-1.346-3-3v-6.5c0-.827.673-1.5,1.5-1.5s1.5.673,1.5,1.5v9.5Zm1,0v-6h14v6H5Zm18-3c0,1.654-1.346,3-3,3v-9.5c0-.827.673-1.5,1.5-1.5s1.5.673,1.5,1.5v6.5Z"/>
</svg>
